<svg width="24" height="24" viewBox="0 0 24 24" fill="none" xmlns="http://www.w3.org/2000/svg">
<path fill-rule="evenodd" clip-rule="evenodd" d="M20.707 1.29303C20.5671 1.15322 20.389 1.05802 20.195 1.01945C20.0011 0.98088 19.8 1.00068 19.6173 1.07635C19.4346 1.15202 19.2785 1.28016 19.1686 1.44457C19.0587 1.60898 19 1.80228 19 2.00003V6.17003C18.3997 5.95778 17.7473 5.94205 17.1375 6.12513C16.5276 6.3082 15.9918 6.68058 15.6076 7.18838C15.2234 7.69618 15.0107 8.31305 15.0004 8.94973C14.9901 9.5864 15.1826 10.2099 15.5501 10.7299C15.9176 11.2499 16.441 11.6395 17.0446 11.8423C17.6482 12.045 18.3007 12.0505 18.9076 11.8579C19.5145 11.6652 20.0444 11.2845 20.4206 10.7707C20.7967 10.2569 20.9997 9.63679 21 9.00003V4.41403L21.293 4.70703C21.3852 4.80254 21.4956 4.87872 21.6176 4.93113C21.7396 4.98354 21.8708 5.01113 22.0036 5.01228C22.1364 5.01344 22.2681 4.98813 22.391 4.93785C22.5138 4.88757 22.6255 4.81332 22.7194 4.71943C22.8133 4.62553 22.8875 4.51388 22.9378 4.39099C22.9881 4.26809 23.0134 4.13641 23.0123 4.00363C23.0111 3.87085 22.9835 3.73963 22.9311 3.61763C22.8787 3.49562 22.8025 3.38528 22.707 3.29303L20.707 1.29303ZM12 4.00003C10.5084 4.00039 9.04666 4.41773 7.77974 5.20494C6.51281 5.99215 5.4912 7.11787 4.83024 8.455C4.16928 9.79214 3.89531 11.2874 4.03924 12.772C4.18318 14.2566 4.7393 15.6715 5.64481 16.8567C6.55032 18.042 7.76916 18.9505 9.16371 19.4796C10.5583 20.0088 12.073 20.1376 13.5368 19.8514C15.0007 19.5652 16.3554 18.8755 17.448 17.8601C18.5406 16.8447 19.3275 15.544 19.72 14.105C19.7532 13.977 19.8115 13.8568 19.8914 13.7514C19.9714 13.646 20.0715 13.5576 20.1859 13.4912C20.3003 13.4247 20.4268 13.3817 20.5579 13.3645C20.6891 13.3473 20.8224 13.3563 20.95 13.3909C21.0777 13.4256 21.1972 13.4852 21.3016 13.5664C21.4061 13.6476 21.4934 13.7487 21.5585 13.8638C21.6236 13.979 21.6652 14.1059 21.6809 14.2373C21.6966 14.3686 21.6861 14.5018 21.65 14.629C20.497 18.876 16.615 22 12 22C6.477 22 2 17.523 2 12C2 6.47703 6.477 2.00003 12 2.00003C13.3 2.00003 14.545 2.24903 15.687 2.70203C15.9335 2.7999 16.1311 2.99168 16.2362 3.2352C16.3413 3.47871 16.3454 3.75401 16.2475 4.00053C16.1496 4.24705 15.9578 4.4446 15.7143 4.54971C15.4708 4.65482 15.1955 4.6589 14.949 4.56103C14.0102 4.18963 13.0096 3.99928 12 4.00003ZM12 11C11.7348 11 11.4804 11.1054 11.2929 11.2929C11.1054 11.4805 11 11.7348 11 12C11 12.2652 11.1054 12.5196 11.2929 12.7071C11.4804 12.8947 11.7348 13 12 13C12.2652 13 12.5196 12.8947 12.7071 12.7071C12.8946 12.5196 13 12.2652 13 12C13 11.7348 12.8946 11.4805 12.7071 11.2929C12.5196 11.1054 12.2652 11 12 11ZM9 12C9 11.2044 9.31607 10.4413 9.87868 9.87871C10.4413 9.3161 11.2044 9.00003 12 9.00003C12.7956 9.00003 13.5587 9.3161 14.1213 9.87871C14.6839 10.4413 15 11.2044 15 12C15 12.7957 14.6839 13.5587 14.1213 14.1214C13.5587 14.684 12.7956 15 12 15C11.2044 15 10.4413 14.684 9.87868 14.1214C9.31607 13.5587 9 12.7957 9 12Z" fill="#FCF4F4"/>
</svg>
