<svg width="33" height="32" viewBox="0 0 33 32" fill="none" xmlns="http://www.w3.org/2000/svg">
<path d="M12.7809 16.0763C12.5982 16.0005 12.3972 15.9805 12.2031 16.019C12.0091 16.0575 11.8309 16.1527 11.6909 16.2925L8.98469 19H6.39844C6.13322 19 5.87887 19.1054 5.69133 19.2929C5.50379 19.4804 5.39844 19.7348 5.39844 20V25C5.39844 25.2652 5.50379 25.5196 5.69133 25.7071C5.87887 25.8946 6.13322 26 6.39844 26H8.98469L11.6909 28.7075C11.8308 28.8475 12.009 28.9429 12.2031 28.9815C12.3972 29.0202 12.5984 29.0004 12.7812 28.9246C12.9641 28.8489 13.1203 28.7206 13.2302 28.556C13.34 28.3914 13.3986 28.1979 13.3984 28V17C13.3984 16.8022 13.3397 16.6089 13.2298 16.4445C13.1199 16.28 12.9637 16.1519 12.7809 16.0763ZM11.3984 25.5863L10.1059 24.2925C10.013 24.1997 9.90268 24.1261 9.78129 24.0759C9.65989 24.0257 9.5298 23.9999 9.39844 24H7.39844V21H9.39844C9.5298 21.0001 9.65989 20.9743 9.78129 20.9241C9.90268 20.8739 10.013 20.8003 10.1059 20.7075L11.3984 19.4137V25.5863ZM19.3984 22.5C19.3974 23.382 19.1663 24.2485 18.7278 25.0138C18.2894 25.7791 17.6588 26.4168 16.8984 26.8638C16.6707 26.9771 16.4084 26.9995 16.1648 26.9262C15.9212 26.853 15.7147 26.6897 15.5873 26.4696C15.4598 26.2494 15.4211 25.989 15.4789 25.7413C15.5367 25.4936 15.6867 25.2772 15.8984 25.1362C16.3569 24.8656 16.7368 24.4802 17.0008 24.0178C17.2648 23.5555 17.4036 23.0324 17.4036 22.5C17.4036 21.9676 17.2648 21.4445 17.0008 20.9822C16.7368 20.5198 16.3569 20.1344 15.8984 19.8638C15.6867 19.7228 15.5367 19.5064 15.4789 19.2587C15.4211 19.011 15.4598 18.7506 15.5873 18.5304C15.7147 18.3103 15.9212 18.147 16.1648 18.0738C16.4084 18.0005 16.6707 18.0229 16.8984 18.1362C17.6588 18.5832 18.2894 19.2209 18.7278 19.9862C19.1663 20.7515 19.3974 21.618 19.3984 22.5ZM27.1059 10.2925L20.1059 3.2925C20.013 3.19967 19.9027 3.12605 19.7813 3.07586C19.6599 3.02568 19.5298 2.9999 19.3984 3H7.39844C6.868 3 6.3593 3.21071 5.98422 3.58579C5.60915 3.96086 5.39844 4.46957 5.39844 5V15C5.39844 15.2652 5.50379 15.5196 5.69133 15.7071C5.87887 15.8946 6.13322 16 6.39844 16C6.66365 16 6.91801 15.8946 7.10554 15.7071C7.29308 15.5196 7.39844 15.2652 7.39844 15V5H18.3984V11C18.3984 11.2652 18.5038 11.5196 18.6913 11.7071C18.8789 11.8946 19.1332 12 19.3984 12H25.3984V27H21.3984C21.1332 27 20.8789 27.1054 20.6913 27.2929C20.5038 27.4804 20.3984 27.7348 20.3984 28C20.3984 28.2652 20.5038 28.5196 20.6913 28.7071C20.8789 28.8946 21.1332 29 21.3984 29H25.3984C25.9289 29 26.4376 28.7893 26.8127 28.4142C27.1877 28.0391 27.3984 27.5304 27.3984 27V11C27.3985 10.8686 27.3728 10.7385 27.3226 10.6172C27.2724 10.4958 27.1988 10.3854 27.1059 10.2925ZM20.3984 6.41375L23.9847 10H20.3984V6.41375Z" fill="#BD5454"/>
</svg>
