<svg width="33" height="32" viewBox="0 0 33 32" fill="none" xmlns="http://www.w3.org/2000/svg">
<path d="M27.1795 5.29255C25.8138 3.92683 23.8852 3.71198 21.6081 3.71198H11.1618C8.91209 3.71198 6.98352 3.92626 5.61723 5.29255C4.25095 6.65883 4.0498 8.57369 4.0498 10.8103V21.1497C4.0498 23.44 4.25038 25.3417 5.61666 26.7074C6.98295 28.0731 8.91152 28.288 11.2012 28.288H21.6075C23.8847 28.288 25.8132 28.0737 27.1789 26.7074C28.5452 25.3417 28.7458 23.44 28.7458 21.1497V10.8503C28.7458 8.55998 28.5458 6.64455 27.1795 5.29255ZM26.5898 10.4754V21.5114C26.5898 22.904 26.4155 24.3234 25.6127 25.1405C24.7955 25.944 23.3487 26.1314 21.9692 26.1314H10.8264C9.44695 26.1314 8.00066 25.944 7.19723 25.1405C6.38009 24.3234 6.2058 22.904 6.2058 21.5108V10.516C6.2058 9.11026 6.38009 7.6634 7.18352 6.85998C8.00066 6.04283 9.46009 5.86912 10.8664 5.86912H21.9692C23.3487 5.86912 24.7949 6.05655 25.6121 6.85998C26.4155 7.67712 26.5898 9.09598 26.5898 10.4754ZM16.3984 23.1451C16.9344 23.1451 17.3629 22.7297 17.3629 22.1943V16.9577H22.5995C23.1349 16.9577 23.5635 16.5023 23.5635 16.0068C23.5635 15.4845 23.1349 15.0423 22.5995 15.0423H17.3629V9.79255C17.3629 9.25655 16.9344 8.84169 16.3984 8.84169C16.273 8.83984 16.1485 8.86317 16.0323 8.9103C15.9161 8.95743 15.8106 9.0274 15.7219 9.11607C15.6332 9.20474 15.5633 9.31029 15.5161 9.42649C15.469 9.54269 15.4457 9.66717 15.4475 9.79255V15.0423H10.2109C9.67495 15.0423 9.24638 15.4845 9.24638 16.0068C9.24638 16.5023 9.67495 16.9577 10.2109 16.9577H15.4475V22.1943C15.4475 22.7297 15.8629 23.1451 16.3984 23.1451Z" fill="#FCF4F4"/>
</svg>
