<svg width="68" height="68" viewBox="0 0 68 68" fill="none" xmlns="http://www.w3.org/2000/svg">
<rect width="68" height="68" fill="#FCF4F4"/>
<path d="M56.5 11.5V42.75C56.5 45.0706 55.5781 47.2962 53.9372 48.9372C52.2962 50.5781 50.0706 51.5 47.75 51.5C45.4294 51.5 43.2038 50.5781 41.5628 48.9372C39.9219 47.2962 39 45.0706 39 42.75C39 40.4294 39.9219 38.2038 41.5628 36.5628C43.2038 34.9219 45.4294 34 47.75 34C49.1 34 50.375 34.3 51.5 34.85V20.175L26.5 25.5V47.75C26.5 50.0706 25.5781 52.2962 23.9372 53.9372C22.2962 55.5781 20.0706 56.5 17.75 56.5C15.4294 56.5 13.2038 55.5781 11.5628 53.9372C9.92187 52.2962 9 50.0706 9 47.75C9 45.4294 9.92187 43.2038 11.5628 41.5628C13.2038 39.9219 15.4294 39 17.75 39C19.1 39 20.375 39.3 21.5 39.85V19L56.5 11.5Z" fill="#BD5454"/>
</svg>
