<svg width="32" height="32" viewBox="0 0 32 32" fill="none" xmlns="http://www.w3.org/2000/svg">
<path fill-rule="evenodd" clip-rule="evenodd" d="M5.62934 7.15203C6.97785 5.80321 8.76388 4.98056 10.6654 4.83241C12.567 4.68426 14.4589 5.22035 16 6.34403C17.6283 5.16593 19.6403 4.64365 21.6361 4.881C23.6318 5.11836 25.4652 6.09796 26.7718 7.62511C28.0783 9.15226 28.7625 11.1151 28.6882 13.1236C28.6138 15.132 27.7865 17.0389 26.3707 18.4654L18.828 26.008C18.0779 26.7579 17.0607 27.1792 16 27.1792C14.9393 27.1792 13.9221 26.7579 13.172 26.008L5.62934 18.4667C4.12916 16.9664 3.28638 14.9317 3.28638 12.81C3.28638 10.6884 4.12916 8.6523 5.62934 7.15203Z" fill="#BD5454"/>
</svg>
