<svg width="25" height="25" viewBox="0 0 25 25" fill="none" xmlns="http://www.w3.org/2000/svg">
<path d="M4.6993 4.5L20.6993 20.5M17.1993 17.256C15.8463 17.985 14.3173 18.5 12.6993 18.5C9.1693 18.5 6.0653 16.048 4.2863 14.279C3.8163 13.812 3.5813 13.579 3.4323 13.12C3.3253 12.793 3.3253 12.207 3.4323 11.88C3.5823 11.421 3.8173 11.187 4.2873 10.72C5.1843 9.828 6.4173 8.764 7.8713 7.927M20.1993 15.134C20.5323 14.841 20.8373 14.552 21.1113 14.28L21.1143 14.277C21.5823 13.811 21.8173 13.577 21.9663 13.121C22.0733 12.794 22.0733 12.207 21.9663 11.88C21.8163 11.422 21.5823 11.188 21.1123 10.721C19.3323 8.952 16.2303 6.5 12.6993 6.5C12.3613 6.5 12.028 6.52133 11.6993 6.564M14.0223 14C13.635 14.342 13.1303 14.5209 12.614 14.499C12.0977 14.4772 11.6099 14.2564 11.2529 13.8829C10.8958 13.5094 10.6971 13.0122 10.6985 12.4955C10.6999 11.9787 10.9012 11.4826 11.2603 11.111" stroke="#FCF4F4" stroke-width="2" stroke-linecap="round" stroke-linejoin="round"/>
</svg>
