<svg width="33" height="32" viewBox="0 0 33 32" fill="none" xmlns="http://www.w3.org/2000/svg">
<path d="M25.7318 25.3333H7.0651V6.66667H25.7318M25.7318 4H7.0651C6.35786 4 5.67958 4.28095 5.17949 4.78105C4.67939 5.28115 4.39844 5.95942 4.39844 6.66667V25.3333C4.39844 26.0406 4.67939 26.7189 5.17949 27.219C5.67958 27.719 6.35786 28 7.0651 28H25.7318C26.439 28 27.1173 27.719 27.6174 27.219C28.1175 26.7189 28.3984 26.0406 28.3984 25.3333V6.66667C28.3984 5.95942 28.1175 5.28115 27.6174 4.78105C27.1173 4.28095 26.439 4 25.7318 4ZM19.0118 16.3867L15.3451 21.1067L12.7318 17.96L9.0651 22.6667H23.7318L19.0118 16.3867Z" fill="#BD5454"/>
</svg>
