<svg width="32" height="32" viewBox="0 0 32 32" fill="none" xmlns="http://www.w3.org/2000/svg">
<path d="M24 9.33333V22.6667M9.296 7.02266C9.17806 6.92947 9.03626 6.87138 8.88684 6.85507C8.73741 6.83875 8.58641 6.86487 8.45114 6.93041C8.31588 6.99596 8.20181 7.09829 8.12202 7.22567C8.04223 7.35306 7.99994 7.50035 8 7.65066V24.3493C8.00019 24.4995 8.04266 24.6466 8.12255 24.7738C8.20244 24.901 8.31652 25.0032 8.45174 25.0685C8.58696 25.1339 8.73786 25.1599 8.88717 25.1436C9.03647 25.1272 9.17815 25.0691 9.296 24.976L19.8707 16.628C19.9656 16.5531 20.0422 16.4577 20.095 16.3489C20.1477 16.2402 20.1751 16.1209 20.1751 16C20.1751 15.8791 20.1477 15.7598 20.095 15.6511C20.0422 15.5423 19.9656 15.4469 19.8707 15.372L9.296 7.02266Z" stroke="#FCF4F4" stroke-width="2" stroke-linecap="round" stroke-linejoin="round"/>
</svg>
