<svg width="32" height="32" viewBox="0 0 32 32" fill="none" xmlns="http://www.w3.org/2000/svg">
<path d="M3.99999 16C4.00264 13.6139 4.9517 11.3262 6.63896 9.63897C8.32621 7.95172 10.6139 7.00265 13 7.00001H26.5862L25.2925 5.70751C25.1049 5.51987 24.9994 5.26537 24.9994 5.00001C24.9994 4.73464 25.1049 4.48015 25.2925 4.29251C25.4801 4.10487 25.7346 3.99945 26 3.99945C26.2654 3.99945 26.5199 4.10487 26.7075 4.29251L29.7075 7.29251C29.8005 7.38538 29.8742 7.49567 29.9246 7.61707C29.9749 7.73846 30.0008 7.86859 30.0008 8.00001C30.0008 8.13142 29.9749 8.26155 29.9246 8.38295C29.8742 8.50434 29.8005 8.61463 29.7075 8.70751L26.7075 11.7075C26.5199 11.8951 26.2654 12.0006 26 12.0006C25.7346 12.0006 25.4801 11.8951 25.2925 11.7075C25.1049 11.5199 24.9994 11.2654 24.9994 11C24.9994 10.7346 25.1049 10.4801 25.2925 10.2925L26.5862 9.00001H13C11.1441 9.00199 9.36476 9.74013 8.05244 11.0525C6.74011 12.3648 6.00198 14.1441 5.99999 16C5.99999 16.2652 5.89464 16.5196 5.7071 16.7071C5.51956 16.8947 5.26521 17 4.99999 17C4.73478 17 4.48042 16.8947 4.29289 16.7071C4.10535 16.5196 3.99999 16.2652 3.99999 16ZM29 15C28.7348 15 28.4804 15.1054 28.2929 15.2929C28.1053 15.4804 28 15.7348 28 16C27.998 17.8559 27.2599 19.6352 25.9475 20.9476C24.6352 22.2599 22.8559 22.998 21 23H7.41374L8.70749 21.7075C8.8004 21.6146 8.8741 21.5043 8.92439 21.3829C8.97467 21.2615 9.00055 21.1314 9.00055 21C9.00055 20.8686 8.97467 20.7385 8.92439 20.6171C8.8741 20.4957 8.8004 20.3854 8.70749 20.2925C8.61458 20.1996 8.50428 20.1259 8.38289 20.0756C8.2615 20.0253 8.13139 19.9994 7.99999 19.9994C7.8686 19.9994 7.73849 20.0253 7.6171 20.0756C7.4957 20.1259 7.3854 20.1996 7.29249 20.2925L4.29249 23.2925C4.19952 23.3854 4.12576 23.4957 4.07543 23.6171C4.02511 23.7385 3.99921 23.8686 3.99921 24C3.99921 24.1314 4.02511 24.2615 4.07543 24.3829C4.12576 24.5043 4.19952 24.6146 4.29249 24.7075L7.29249 27.7075C7.3854 27.8004 7.4957 27.8741 7.6171 27.9244C7.73849 27.9747 7.8686 28.0006 7.99999 28.0006C8.13139 28.0006 8.2615 27.9747 8.38289 27.9244C8.50428 27.8741 8.61458 27.8004 8.70749 27.7075C8.8004 27.6146 8.8741 27.5043 8.92439 27.3829C8.97467 27.2615 9.00055 27.1314 9.00055 27C9.00055 26.8686 8.97467 26.7385 8.92439 26.6171C8.8741 26.4957 8.8004 26.3854 8.70749 26.2925L7.41374 25H21C23.3861 24.9974 25.6738 24.0483 27.361 22.361C29.0483 20.6738 29.9973 18.3861 30 16C30 15.7348 29.8946 15.4804 29.7071 15.2929C29.5196 15.1054 29.2652 15 29 15ZM18 20C18.2652 20 18.5196 19.8947 18.7071 19.7071C18.8946 19.5196 19 19.2652 19 19V13C19.0001 12.8295 18.9566 12.6617 18.8736 12.5127C18.7907 12.3637 18.6709 12.2384 18.5259 12.1487C18.3808 12.0591 18.2153 12.008 18.0449 12.0003C17.8745 11.9926 17.705 12.0287 17.5525 12.105L15.5525 13.105C15.3153 13.2237 15.1349 13.4317 15.0511 13.6834C14.9673 13.935 14.9869 14.2097 15.1056 14.4469C15.2243 14.6841 15.4324 14.8644 15.684 14.9482C15.9357 15.032 16.2103 15.0124 16.4475 14.8938L17 14.6175V19C17 19.2652 17.1053 19.5196 17.2929 19.7071C17.4804 19.8947 17.7348 20 18 20Z" fill="#FCF4F4"/>
</svg>
