<svg width="32" height="32" viewBox="0 0 32 32" fill="none" xmlns="http://www.w3.org/2000/svg">
<path d="M3.99999 16C4.00264 13.6139 4.9517 11.3262 6.63896 9.63896C8.32621 7.9517 10.6139 7.00264 13 6.99999H25V4.99999C24.9998 4.8021 25.0584 4.60861 25.1683 4.44401C25.2781 4.27942 25.4344 4.15112 25.6172 4.07537C25.8 3.99962 26.0012 3.97981 26.1953 4.01846C26.3894 4.05712 26.5676 4.15248 26.7075 4.29249L29.7075 7.29249C29.8005 7.38537 29.8742 7.49566 29.9246 7.61705C29.9749 7.73845 30.0008 7.86858 30.0008 7.99999C30.0008 8.13141 29.9749 8.26154 29.9246 8.38293C29.8742 8.50433 29.8005 8.61462 29.7075 8.70749L26.7075 11.7075C26.5676 11.8475 26.3894 11.9429 26.1953 11.9815C26.0012 12.0202 25.8 12.0004 25.6172 11.9246C25.4344 11.8489 25.2781 11.7206 25.1683 11.556C25.0584 11.3914 24.9998 11.1979 25 11V8.99999H13C11.1441 9.00198 9.36476 9.74012 8.05244 11.0524C6.74011 12.3648 6.00198 14.1441 5.99999 16C5.99999 16.2652 5.89464 16.5196 5.7071 16.7071C5.51956 16.8946 5.26521 17 4.99999 17C4.73478 17 4.48042 16.8946 4.29289 16.7071C4.10535 16.5196 3.99999 16.2652 3.99999 16ZM29 15C28.7348 15 28.4804 15.1054 28.2929 15.2929C28.1053 15.4804 28 15.7348 28 16C27.998 17.8559 27.2599 19.6352 25.9475 20.9475C24.6352 22.2599 22.8559 22.998 21 23H8.99999V21C9.00015 20.8021 8.94158 20.6086 8.83171 20.444C8.72184 20.2794 8.56561 20.1511 8.38278 20.0754C8.19996 19.9996 7.99877 19.9798 7.80469 20.0185C7.6106 20.0571 7.43235 20.1525 7.29249 20.2925L4.29249 23.2925C4.19952 23.3854 4.12576 23.4957 4.07543 23.6171C4.02511 23.7385 3.99921 23.8686 3.99921 24C3.99921 24.1314 4.02511 24.2615 4.07543 24.3829C4.12576 24.5043 4.19952 24.6146 4.29249 24.7075L7.29249 27.7075C7.43235 27.8475 7.6106 27.9429 7.80469 27.9815C7.99877 28.0202 8.19996 28.0004 8.38278 27.9246C8.56561 27.8489 8.72184 27.7206 8.83171 27.556C8.94158 27.3914 9.00015 27.1979 8.99999 27V25H21C23.3861 24.9973 25.6738 24.0483 27.361 22.361C29.0483 20.6738 29.9973 18.3861 30 16C30 15.7348 29.8946 15.4804 29.7071 15.2929C29.5196 15.1054 29.2652 15 29 15Z" fill="#FCF4F4"/>
</svg>
