<svg width="32" height="32" viewBox="0 0 32 32" fill="none" xmlns="http://www.w3.org/2000/svg">
<path d="M29.7075 22.2925C29.8005 22.3854 29.8742 22.4957 29.9246 22.6171C29.9749 22.7385 30.0008 22.8686 30.0008 23C30.0008 23.1314 29.9749 23.2615 29.9246 23.3829C29.8742 23.5043 29.8005 23.6146 29.7075 23.7075L26.7075 26.7075C26.5199 26.8951 26.2654 27.0006 26 27.0006C25.7346 27.0006 25.4801 26.8951 25.2925 26.7075C25.1049 26.5199 24.9994 26.2654 24.9994 26C24.9994 25.7346 25.1049 25.4801 25.2925 25.2925L26.5863 24H25.1175C23.6851 23.9988 22.2737 23.6563 21.0001 23.0009C19.7264 22.3455 18.6273 21.3961 17.7938 20.2313L12.5787 12.9313C11.9304 12.0253 11.0755 11.2869 10.0849 10.7772C9.09433 10.2674 7.99655 10.001 6.8825 10H4C3.73478 10 3.48043 9.89465 3.29289 9.70711C3.10536 9.51958 3 9.26522 3 9.00001C3 8.73479 3.10536 8.48044 3.29289 8.2929C3.48043 8.10536 3.73478 8.00001 4 8.00001H6.8825C8.31486 8.0012 9.72632 8.34368 10.9999 8.99908C12.2736 9.65447 13.3727 10.6039 14.2063 11.7688L19.4212 19.0688C20.0696 19.9747 20.9245 20.7131 21.9151 21.2229C22.9057 21.7326 24.0035 21.999 25.1175 22H26.5863L25.2925 20.7075C25.1049 20.5199 24.9994 20.2654 24.9994 20C24.9994 19.7346 25.1049 19.4801 25.2925 19.2925C25.4801 19.1049 25.7346 18.9994 26 18.9994C26.2654 18.9994 26.5199 19.1049 26.7075 19.2925L29.7075 22.2925ZM17.875 13.375C17.9819 13.4513 18.1027 13.5059 18.2307 13.5355C18.3586 13.5651 18.4911 13.5693 18.6207 13.5477C18.7502 13.5261 18.8742 13.4792 18.9856 13.4097C19.097 13.3402 19.1937 13.2494 19.27 13.1425L19.42 12.9338C20.0682 12.0272 20.9232 11.2882 21.914 10.778C22.9049 10.2678 24.003 10.0011 25.1175 10H26.5863L25.2925 11.2925C25.1049 11.4801 24.9994 11.7346 24.9994 12C24.9994 12.2654 25.1049 12.5199 25.2925 12.7075C25.4801 12.8951 25.7346 13.0006 26 13.0006C26.2654 13.0006 26.5199 12.8951 26.7075 12.7075L29.7075 9.70751C29.8005 9.61463 29.8742 9.50434 29.9246 9.38295C29.9749 9.26155 30.0008 9.13142 30.0008 9.00001C30.0008 8.86859 29.9749 8.73846 29.9246 8.61707C29.8742 8.49567 29.8005 8.38538 29.7075 8.29251L26.7075 5.29251C26.5199 5.10487 26.2654 4.99945 26 4.99945C25.7346 4.99945 25.4801 5.10487 25.2925 5.29251C25.1049 5.48015 24.9994 5.73464 24.9994 6.00001C24.9994 6.26537 25.1049 6.51987 25.2925 6.70751L26.5863 8.00001H25.1175C23.6851 8.0012 22.2737 8.34368 21.0001 8.99908C19.7264 9.65447 18.6273 10.6039 17.7938 11.7688L17.6437 11.9775C17.567 12.0844 17.512 12.2054 17.4821 12.3335C17.4521 12.4616 17.4478 12.5944 17.4693 12.7243C17.4908 12.8541 17.5377 12.9784 17.6073 13.0901C17.6769 13.2017 17.7679 13.2986 17.875 13.375ZM14.125 18.625C14.0181 18.5487 13.8973 18.4941 13.7693 18.4645C13.6414 18.4349 13.5089 18.4307 13.3793 18.4523C13.2498 18.4739 13.1258 18.5208 13.0144 18.5903C12.903 18.6599 12.8063 18.7506 12.73 18.8575L12.58 19.0663C11.9318 19.9728 11.0768 20.7118 10.086 21.222C9.09514 21.7322 7.99698 21.9989 6.8825 22H4C3.73478 22 3.48043 22.1054 3.29289 22.2929C3.10536 22.4804 3 22.7348 3 23C3 23.2652 3.10536 23.5196 3.29289 23.7071C3.48043 23.8947 3.73478 24 4 24H6.8825C8.31486 23.9988 9.72632 23.6563 10.9999 23.0009C12.2736 22.3455 13.3727 21.3961 14.2063 20.2313L14.3562 20.0225C14.433 19.9156 14.488 19.7947 14.5179 19.6665C14.5479 19.5384 14.5522 19.4056 14.5307 19.2758C14.5092 19.1459 14.4623 19.0216 14.3927 18.9099C14.3231 18.7983 14.2321 18.7014 14.125 18.625Z" fill="#FCF4F4"/>
</svg>
