<svg width="40" height="40" viewBox="0 0 40 40" fill="none" xmlns="http://www.w3.org/2000/svg">
<path d="M15 8.75C15.3315 8.75 15.6495 8.8817 15.8839 9.11612C16.1183 9.35054 16.25 9.66848 16.25 10V30C16.25 30.3315 16.1183 30.6495 15.8839 30.8839C15.6495 31.1183 15.3315 31.25 15 31.25C14.6685 31.25 14.3505 31.1183 14.1161 30.8839C13.8817 30.6495 13.75 30.3315 13.75 30V10C13.75 9.66848 13.8817 9.35054 14.1161 9.11612C14.3505 8.8817 14.6685 8.75 15 8.75ZM25 8.75C25.3315 8.75 25.6495 8.8817 25.8839 9.11612C26.1183 9.35054 26.25 9.66848 26.25 10V30C26.25 30.3315 26.1183 30.6495 25.8839 30.8839C25.6495 31.1183 25.3315 31.25 25 31.25C24.6685 31.25 24.3505 31.1183 24.1161 30.8839C23.8817 30.6495 23.75 30.3315 23.75 30V10C23.75 9.66848 23.8817 9.35054 24.1161 9.11612C24.3505 8.8817 24.6685 8.75 25 8.75Z" fill="#FCF4F4"/>
</svg>
