<svg width="32" height="32" viewBox="0 0 32 32" fill="none" xmlns="http://www.w3.org/2000/svg">
<path d="M12 11.5C12 11.2348 12.1054 10.9804 12.2929 10.7929C12.4804 10.6054 12.7348 10.5 13 10.5C13.2652 10.5 13.5196 10.6054 13.7071 10.7929C13.8946 10.9804 14 11.2348 14 11.5V20.5C14 20.7652 13.8946 21.0196 13.7071 21.2071C13.5196 21.3946 13.2652 21.5 13 21.5C12.7348 21.5 12.4804 21.3946 12.2929 21.2071C12.1054 21.0196 12 20.7652 12 20.5V11.5ZM19 10.5C18.7348 10.5 18.4804 10.6054 18.2929 10.7929C18.1054 10.9804 18 11.2348 18 11.5V20.5C18 20.7652 18.1054 21.0196 18.2929 21.2071C18.4804 21.3946 18.7348 21.5 19 21.5C19.2652 21.5 19.5196 21.3946 19.7071 21.2071C19.8946 21.0196 20 20.7652 20 20.5V11.5C20 11.2348 19.8946 10.9804 19.7071 10.7929C19.5196 10.6054 19.2652 10.5 19 10.5ZM16 2C8.268 2 2 8.268 2 16C2 23.732 8.268 30 16 30C23.732 30 30 23.732 30 16C30 8.268 23.732 2 16 2ZM4 16C4 9.373 9.373 4 16 4C22.627 4 28 9.373 28 16C28 22.627 22.627 28 16 28C9.373 28 4 22.627 4 16Z" fill="#FCF4F4"/>
</svg>
