<svg width="32" height="32" viewBox="0 0 32 32" fill="none" xmlns="http://www.w3.org/2000/svg">
<path d="M14.304 10.3177C14.0437 10.1631 13.7471 10.0802 13.4444 10.0774C13.1416 10.0746 12.8436 10.152 12.5805 10.3018C12.3174 10.4516 12.0986 10.6684 11.9465 10.9301C11.7943 11.1919 11.7142 11.4893 11.7143 11.792V19.6366C11.7142 19.9393 11.7943 20.2367 11.9465 20.4984C12.0986 20.7602 12.3174 20.977 12.5805 21.1267C12.8436 21.2765 13.1416 21.354 13.4444 21.3512C13.7471 21.3484 14.0437 21.2655 14.304 21.1109L21.7383 16.6971C21.9088 16.596 22.0501 16.4521 22.1482 16.2798C22.2464 16.1075 22.298 15.9126 22.298 15.7143C22.298 15.516 22.2464 15.3211 22.1482 15.1488C22.0501 14.9764 21.9088 14.8326 21.7383 14.7314L14.304 10.3177ZM2 15.7143C2 8.14057 8.14057 2 15.7143 2C23.288 2 29.4286 8.14057 29.4286 15.7143C29.4286 23.288 23.288 29.4286 15.7143 29.4286C8.14057 29.4286 2 23.288 2 15.7143ZM15.7143 3.71429C9.08686 3.71429 3.71429 9.08686 3.71429 15.7143C3.71429 22.3417 9.08686 27.7143 15.7143 27.7143C22.3417 27.7143 27.7143 22.3417 27.7143 15.7143C27.7143 9.08686 22.3417 3.71429 15.7143 3.71429Z" fill="#FCF4F4"/>
</svg>
