<svg width="32" height="32" viewBox="0 0 32 32" fill="none" xmlns="http://www.w3.org/2000/svg">
<path d="M8 9.33333V22.6667M22.704 7.02266C22.8219 6.92947 22.9637 6.87138 23.1132 6.85507C23.2626 6.83875 23.4136 6.86487 23.5489 6.93041C23.6841 6.99596 23.7982 7.09829 23.878 7.22567C23.9578 7.35306 24.0001 7.50035 24 7.65066V24.3493C23.9998 24.4995 23.9573 24.6466 23.8774 24.7738C23.7976 24.901 23.6835 25.0032 23.5483 25.0685C23.413 25.1339 23.2621 25.1599 23.1128 25.1436C22.9635 25.1272 22.8218 25.0691 22.704 24.976L12.1293 16.628C12.0344 16.5531 11.9578 16.4577 11.905 16.3489C11.8523 16.2402 11.8249 16.1209 11.8249 16C11.8249 15.8791 11.8523 15.7598 11.905 15.6511C11.9578 15.5423 12.0344 15.4469 12.1293 15.372L22.704 7.02266Z" stroke="#FCF4F4" stroke-width="2" stroke-linecap="round" stroke-linejoin="round"/>
</svg>
