<svg width="25" height="25" viewBox="0 0 25 25" fill="none" xmlns="http://www.w3.org/2000/svg">
<path d="M4.2863 14.279C6.0663 16.048 9.1693 18.499 12.6993 18.499C16.2293 18.499 19.3333 16.048 21.1123 14.279C21.5823 13.812 21.8173 13.579 21.9663 13.12C22.0733 12.793 22.0733 12.207 21.9663 11.88C21.8163 11.422 21.5813 11.188 21.1123 10.721C19.3323 8.952 16.2303 6.5 12.6993 6.5C9.1693 6.5 6.0653 8.952 4.2863 10.721C3.8163 11.188 3.5813 11.421 3.4323 11.88C3.3253 12.207 3.3253 12.793 3.4323 13.12C3.5823 13.578 3.8163 13.812 4.2863 14.279Z" stroke="#FCF4F4" stroke-width="2" stroke-linecap="round" stroke-linejoin="round"/>
<path d="M10.6992 12.5C10.6992 13.0304 10.9099 13.5391 11.285 13.9142C11.6601 14.2893 12.1688 14.5 12.6992 14.5C13.2297 14.5 13.7384 14.2893 14.1134 13.9142C14.4885 13.5391 14.6992 13.0304 14.6992 12.5C14.6992 11.9696 14.4885 11.4609 14.1134 11.0858C13.7384 10.7107 13.2297 10.5 12.6992 10.5C12.1688 10.5 11.6601 10.7107 11.285 11.0858C10.9099 11.4609 10.6992 11.9696 10.6992 12.5Z" stroke="#FCF4F4" stroke-width="2" stroke-linecap="round" stroke-linejoin="round"/>
</svg>
