<svg width="25" height="24" viewBox="0 0 25 24" fill="none" xmlns="http://www.w3.org/2000/svg">
<path d="M22.1084 20.29L18.3984 16.61C19.8385 14.8144 20.5359 12.5353 20.3472 10.2413C20.1585 7.94733 19.0981 5.81281 17.3839 4.27667C15.6698 2.74053 13.4322 1.91954 11.1313 1.9825C8.83044 2.04546 6.64112 2.98759 5.01354 4.61517C3.38596 6.24275 2.44383 8.43207 2.38087 10.733C2.31791 13.0338 3.13891 15.2714 4.67505 16.9855C6.21119 18.6997 8.3457 19.7601 10.6397 19.9488C12.9337 20.1375 15.2128 19.4401 17.0084 18L20.6884 21.68C20.7814 21.7738 20.892 21.8482 21.0138 21.8989C21.1357 21.9497 21.2664 21.9758 21.3984 21.9758C21.5304 21.9758 21.6611 21.9497 21.783 21.8989C21.9048 21.8482 22.0154 21.7738 22.1084 21.68C22.2886 21.4936 22.3894 21.2444 22.3894 20.985C22.3894 20.7257 22.2886 20.4765 22.1084 20.29ZM11.3984 18C10.0139 18 8.66056 17.5895 7.50941 16.8203C6.35827 16.0511 5.46106 14.9579 4.93125 13.6788C4.40143 12.3997 4.26281 10.9923 4.53291 9.6344C4.803 8.27653 5.46969 7.02925 6.44866 6.05028C7.42762 5.07131 8.6749 4.40463 10.0328 4.13453C11.3906 3.86443 12.7981 4.00306 14.0772 4.53287C15.3563 5.06268 16.4495 5.95989 17.2187 7.11104C17.9879 8.26218 18.3984 9.61556 18.3984 11C18.3984 12.8565 17.6609 14.637 16.3482 15.9498C15.0354 17.2625 13.2549 18 11.3984 18Z" fill="#FCF4F4"/>
</svg>
