<svg width="24" height="25" viewBox="0 0 24 25" fill="none" xmlns="http://www.w3.org/2000/svg">
<path d="M3.49999 9.39999C3.73738 9.51788 4.01187 9.53671 4.26313 9.45233C4.51439 9.36795 4.72188 9.18727 4.83999 8.94999C5.47293 7.67178 6.43609 6.58603 7.62971 5.80521C8.82334 5.02439 10.204 4.57688 11.6287 4.50905C13.0534 4.44121 14.4704 4.75551 15.7328 5.4194C16.9952 6.08329 18.0572 7.07261 18.8087 8.2849C19.5602 9.49719 19.9739 10.8884 20.007 12.3143C20.0401 13.7403 19.6914 15.1491 18.997 16.395C18.3025 17.6408 17.2876 18.6784 16.0574 19.4001C14.8272 20.1219 13.4263 20.5016 12 20.5C10.5089 20.5064 9.04615 20.0924 7.77969 19.3052C6.51322 18.5181 5.49435 17.3899 4.83999 16.05C4.72065 15.8113 4.51137 15.6298 4.25819 15.5454C4.00502 15.461 3.72869 15.4806 3.48999 15.6C3.2513 15.7193 3.06979 15.9286 2.9854 16.1818C2.90101 16.435 2.92065 16.7113 3.04 16.95C4.04339 18.9692 5.69976 20.5901 7.74027 21.5496C9.78078 22.509 12.0857 22.7507 14.2808 22.2353C16.4759 21.72 18.4325 20.4779 19.8329 18.7107C21.2333 16.9434 21.9953 14.7548 21.9953 12.5C21.9953 10.2452 21.2333 8.05654 19.8329 6.28931C18.4325 4.52208 16.4759 3.28 14.2808 2.76467C12.0857 2.24933 9.78078 2.49099 7.74027 3.45042C5.69976 4.40985 4.04339 6.03073 3.04 8.04999C2.9804 8.16862 2.94503 8.29793 2.93593 8.43037C2.92684 8.56282 2.9442 8.69575 2.98702 8.82141C3.02984 8.94707 3.09725 9.06295 3.18532 9.16229C3.2734 9.26162 3.38037 9.34243 3.49999 9.39999ZM2.99999 13.5H12.59L10.29 15.79C10.1968 15.8832 10.1228 15.9939 10.0723 16.1157C10.0219 16.2376 9.9959 16.3681 9.9959 16.5C9.9959 16.6318 10.0219 16.7624 10.0723 16.8842C10.1228 17.0061 10.1968 17.1168 10.29 17.21C10.3832 17.3032 10.4939 17.3772 10.6157 17.4277C10.7376 17.4781 10.8681 17.5041 11 17.5041C11.1319 17.5041 11.2624 17.4781 11.3842 17.4277C11.5061 17.3772 11.6168 17.3032 11.71 17.21L15.71 13.21C15.801 13.1149 15.8724 13.0027 15.92 12.88C16.02 12.6365 16.02 12.3635 15.92 12.12C15.8724 11.9972 15.801 11.8851 15.71 11.79L11.71 7.78999C11.617 7.69626 11.5064 7.62187 11.3846 7.5711C11.2627 7.52033 11.132 7.49419 11 7.49419C10.868 7.49419 10.7373 7.52033 10.6154 7.5711C10.4936 7.62187 10.383 7.69626 10.29 7.78999C10.1963 7.88295 10.1219 7.99355 10.0711 8.11541C10.0203 8.23727 9.9942 8.36798 9.9942 8.49999C9.9942 8.632 10.0203 8.76271 10.0711 8.88457C10.1219 9.00643 10.1963 9.11703 10.29 9.20999L12.59 11.5H2.99999C2.73478 11.5 2.48042 11.6053 2.29289 11.7929C2.10535 11.9804 1.99999 12.2348 1.99999 12.5C1.99999 12.7652 2.10535 13.0196 2.29289 13.2071C2.48042 13.3946 2.73478 13.5 2.99999 13.5Z" fill="#C25757"/>
</svg>
