<svg width="32" height="32" viewBox="0 0 32 32" fill="none" xmlns="http://www.w3.org/2000/svg">
<path fill-rule="evenodd" clip-rule="evenodd" d="M16 2.66669C23.364 2.66669 29.3333 8.63602 29.3333 16C29.3379 19.0772 28.2737 22.0605 26.3226 24.44L26.3493 24.4694L26.1733 24.6187C24.9228 26.0975 23.3646 27.2856 21.6075 28.0999C19.8503 28.9142 17.9366 29.3352 16 29.3334C12.0666 29.3334 8.53331 27.6307 6.09331 24.924L5.82664 24.6174L5.65064 24.4707L5.67731 24.4387C3.72651 22.0595 2.66236 19.0767 2.66664 16C2.66664 8.63602 8.63597 2.66669 16 2.66669ZM16 22.6667C13.52 22.6667 11.2786 23.456 9.60931 24.5414C11.4528 25.9239 13.6957 26.6699 16 26.6667C18.3043 26.6699 20.5472 25.9239 22.3906 24.5414C20.483 23.3192 18.2655 22.6687 16 22.6667ZM16 5.33335C13.9927 5.3333 12.0261 5.89964 10.3263 6.96729C8.62645 8.03493 7.26238 9.56055 6.39085 11.3688C5.51933 13.177 5.17571 15.1945 5.39951 17.1893C5.6233 19.184 6.40542 21.0752 7.65597 22.6454C9.81731 21.0947 12.7666 20 16 20C19.2333 20 22.1826 21.0947 24.344 22.6454C25.5945 21.0752 26.3766 19.184 26.6004 17.1893C26.8242 15.1945 26.4806 13.177 25.6091 11.3688C24.7376 9.56055 23.3735 8.03493 21.6737 6.96729C19.9739 5.89964 18.0073 5.3333 16 5.33335ZM16 8.00002C17.4145 8.00002 18.771 8.56192 19.7712 9.56212C20.7714 10.5623 21.3333 11.9189 21.3333 13.3334C21.3333 14.7478 20.7714 16.1044 19.7712 17.1046C18.771 18.1048 17.4145 18.6667 16 18.6667C14.5855 18.6667 13.2289 18.1048 12.2287 17.1046C11.2285 16.1044 10.6666 14.7478 10.6666 13.3334C10.6666 11.9189 11.2285 10.5623 12.2287 9.56212C13.2289 8.56192 14.5855 8.00002 16 8.00002ZM16 10.6667C15.2927 10.6667 14.6145 10.9476 14.1144 11.4477C13.6143 11.9478 13.3333 12.6261 13.3333 13.3334C13.3333 14.0406 13.6143 14.7189 14.1144 15.219C14.6145 15.7191 15.2927 16 16 16C16.7072 16 17.3855 15.7191 17.8856 15.219C18.3857 14.7189 18.6666 14.0406 18.6666 13.3334C18.6666 12.6261 18.3857 11.9478 17.8856 11.4477C17.3855 10.9476 16.7072 10.6667 16 10.6667Z" fill="#BD5454"/>
</svg>
