<svg width="47" height="60" viewBox="0 0 47 60" fill="none" xmlns="http://www.w3.org/2000/svg">
<path d="M6.26565 25.6539C6.45926 25.5787 6.26565 25.6539 7 25.3838C7.75452 25.0892 6.26565 25.6538 7.75452 25.0892C7.75452 25.6539 7.76768 26.7137 7.75452 27.2772C7.75453 27.4262 7.75451 28.5601 7.75452 28.7137C7.75344 29.0276 7.75452 29.585 7.75452 30.1984C7.73575 31.0526 7.75452 31.7609 7.9 32.2609C8.02 32.7609 8 32.7609 8.25 33.4093C8.35426 33.6798 8.35 33.6522 8.49999 34.0339C8.85 34.7609 8.49999 34.0339 8.85 34.7609C7.75452 34.7609 5.08814 34.7609 4 34.7609C4.44337 33.7802 4.5 33.7609 4.86 32.6025C5.22 31.4442 5.09814 30.0661 5.03 29.5339C4.96597 29.0339 4.87036 28.4329 4.45 27.5339C4.02964 26.635 4 26.5339 4 26.5339C5.5 25.9639 4 26.5339 6.26565 25.6539Z" fill="url(#paint0_linear_2331_293)"/>
<path d="M14.6 19.0486C14.6 19.6297 14.6 19.0305 14.6 19.7601C14.6 20.5801 14.6005 20.543 14.6 21.4131C14.6007 21.5891 14.5993 22.5749 14.6 22.7561C14.6019 23.3377 14.5998 23.8599 14.6 24.4414C14.6006 24.846 14.5993 25.3476 14.6 25.7522C14.6012 26.6004 14.6001 27.3505 14.6 28.1987C14.6 29.2847 14.5965 31.0004 14.6 32.0864C14.6022 32.9221 14.6001 33.3629 14.6 34.1987C14.6002 34.599 14.5984 34.8564 14.6 35.2568C14.602 35.8172 14.6012 36.4269 14.6 36.9872C14.6011 37.152 14.6 37.5356 14.65 37.8013C14.75 38.4163 14.86 38.8013 15.06 39.3513C15.151 39.6015 15.2488 39.8051 15.33 40.0165C15.4594 40.3013 15.45 40.3013 15.68 40.8013C15.43 40.8013 13.93 40.8013 13.1809 40.8013C13.0084 40.7924 12.6081 40.8013 12.43 40.8013C11.43 40.8013 11.93 40.8013 10.85 40.8013C11.31 39.8013 11.58 39.2013 11.79 38.3013C11.89 37.8013 11.9325 37.3966 11.93 37.1987C11.9235 36.5646 11.9284 35.8328 11.93 35.1987C11.9283 34.7575 11.9322 34.1398 11.93 33.6987C11.9267 32.7745 11.9269 32.1228 11.93 31.1987C11.9335 30.0142 11.9406 28.8831 11.93 27.6987C11.9233 26.7879 11.9282 26.1095 11.93 25.1987C11.9299 24.762 11.95 23.6986 11.83 23.1987C11.7541 22.7561 11.5793 22.1986 11.37 21.6987C11.2505 21.4131 10.93 20.6986 10.85 20.4986C11.93 20.0786 11.5242 20.2409 11.93 20.0786C12.93 19.6786 12.93 19.7167 14.6 19.0486Z" fill="url(#paint1_linear_2331_293)"/>
<path fill-rule="evenodd" clip-rule="evenodd" d="M21.4319 4.83884C21.4309 4.55224 21.43 4.27113 21.43 4C20.3686 4.41121 20.1897 4.4824 20.0103 4.55243C19.7892 4.63876 19.5674 4.72331 17.69 5.44111C18.1366 6.45826 18.1789 6.54639 18.2107 6.63818C18.2335 6.70431 18.2509 6.77234 18.41 7.19111C18.56 7.64111 18.56 7.64111 18.66 8.14111C18.772 8.88785 18.7685 9.03542 18.7615 9.33301C18.7591 9.43394 18.7563 9.55212 18.7574 9.71679C18.761 10.1934 18.7624 10.7473 18.7624 11.2239C18.762 11.4216 18.7616 11.6146 18.7612 11.8044C18.7591 12.861 18.7571 13.818 18.7624 14.9182C18.7667 15.7981 18.7652 16.7221 18.7638 17.6339C18.763 18.1521 18.7622 18.6664 18.7624 19.1664C18.7628 20.0957 18.7617 20.923 18.7606 21.7256C18.7588 23.0456 18.7571 24.2985 18.7624 25.8269C18.7672 27.1739 18.7658 27.7008 18.7641 28.3305C18.7636 28.4979 18.7632 28.6725 18.7628 28.8718C18.7627 28.6849 18.7626 28.5088 18.7624 28.3454C18.7623 28.179 18.7622 28.5779 18.7623 29.2257C18.7619 29.5323 18.7619 29.8987 18.7624 30.3652C18.7624 30.5814 18.7624 30.8036 18.7624 31.0262C18.7624 31.1197 18.7624 31.2132 18.7625 31.3064C18.7624 31.3847 18.7625 31.466 18.7625 31.5493C18.7625 31.5777 18.7624 31.6064 18.7624 31.6353C18.7623 32.0604 18.762 32.4981 18.7618 32.9406C18.7607 35.2512 18.7595 37.6907 18.7624 39.1412C18.7626 39.2257 18.7636 39.3277 18.7648 39.4601C18.7697 39.9753 18.7789 40.9503 18.7624 43.1412C18.7636 43.8092 18.7627 44.294 18.7618 44.7628C18.7608 45.3212 18.7598 45.8568 18.7624 46.6524C18.7633 46.9001 18.7629 47.4498 18.7625 47.9941C18.762 48.5196 18.7616 49.0402 18.7624 49.2794C18.763 49.5703 18.7625 50.0379 18.7621 50.5312C18.7615 51.1926 18.7609 51.9003 18.7624 52.2904C18.7624 52.35 18.74 52.85 18.62 53.35C18.6128 53.3801 18.6051 53.4133 18.5968 53.449C18.5529 53.6378 18.4925 53.8977 18.4 54.15C18.3887 54.181 18.3791 54.2072 18.3704 54.2313C18.3228 54.362 18.299 54.4276 18.13 54.85L17.905 55.35C17.905 55.35 17.905 55.35 17.68 55.85H18.56H20.0667H22.51L22.29 55.35C22.0312 54.7482 22.0006 54.6896 21.9737 54.6294C21.9558 54.5896 21.9396 54.5491 21.86 54.35C21.8309 54.253 21.8034 54.1624 21.7775 54.0769C21.5358 53.2805 21.4292 52.9292 21.4367 52.0648C21.4416 51.5058 21.4386 50.577 21.4367 50.018C21.4336 49.161 21.4318 48.2772 21.4367 47.4203C21.4384 47.1403 21.4377 46.9521 21.4369 46.7612C21.4361 46.5813 21.4354 46.3989 21.4367 46.1351C21.4365 46.002 21.4366 45.8371 21.4367 45.6735C21.4368 45.5123 21.4369 45.3523 21.4367 45.225C21.4368 45.1015 21.4367 44.725 21.4367 44.3514C21.4367 44.1824 21.4367 44.0139 21.4367 43.8697C21.4367 43.6253 21.4836 43.3836 21.5632 43.1526V43.1526C21.6697 42.8433 21.705 42.7409 22.0896 42.3563C22.4174 42.0285 22.9635 42.0083 23.1421 42.0016C23.1577 42.001 23.1704 42.0006 23.18 42C23.3327 41.9948 23.3959 41.9961 23.4801 41.9978C23.531 41.9988 23.5895 42 23.68 42C23.8929 42 24.184 42.0785 24.5397 42.2748C24.6343 42.3269 24.7219 42.3912 24.8023 42.4632C25.0319 42.669 25.1438 42.8088 25.2629 43.0992C25.3489 43.3086 25.3784 43.5362 25.3786 43.7626C25.3788 43.9016 25.3794 44.0597 25.38 44.2174C25.3812 44.5313 25.3825 44.8435 25.38 45C25.3804 45.0677 25.3811 45.1354 25.3818 45.2032C25.3859 45.6119 25.3901 46.0274 25.33 46.5C25.26 47.1948 25 48 24.3 49.5H25.68C25.8204 49.5 26.0638 49.501 26.3456 49.5021C27.0674 49.505 28.0411 49.5088 28.18 49.5C28.2984 49.4925 28.4444 49.4942 28.6547 49.4966C28.7877 49.4982 28.9464 49.5 29.14 49.5L28.68 48.5C28.45 48 28.28 47.5 28.1295 46.7728C28.0474 46.3761 28.0464 45.6713 28.046 45.4017L28.0459 45.3877C28.0478 45.1568 28.0488 45.0861 28.0489 45.0154C28.0489 44.9446 28.048 44.8739 28.0459 44.643C28.0439 44.428 28.0443 44.3632 28.045 44.2576C28.0453 44.1971 28.0458 44.1232 28.0459 44L28.0463 43.9073C28.0493 43.0447 28.0511 42.5579 28.0459 41.6678C28.0421 41.0219 28.0434 40.3528 28.0447 39.6912C28.0453 39.3494 28.046 39.0096 28.0459 38.676C28.0459 38.1166 28.0467 37.5645 28.0475 37.0147C28.049 35.9532 28.0506 34.9003 28.0459 33.8204C28.0405 32.595 28.0423 31.3332 28.0442 30.0817C28.0452 29.3819 28.0462 28.6852 28.0459 28C28.0457 27.2321 28.0463 26.4581 28.0469 25.6825C28.048 24.3892 28.049 23.0917 28.0459 21.8112C28.0451 21.4839 28.0455 21.0862 28.0458 20.6965C28.046 20.3869 28.0463 20.0823 28.0459 19.8222C28.0455 19.4419 28.0462 19.12 28.0468 18.8092C28.0477 18.3511 28.0486 17.9173 28.0459 17.3568C28.045 17.1785 28.0454 16.9824 28.0459 16.7869C28.0463 16.6034 28.0467 16.4204 28.0459 16.2531C28.0459 16.0737 28.0463 15.9355 28.0467 15.8079C28.0473 15.592 28.0479 15.4065 28.0459 15.1026C28.0451 14.9922 28.0455 14.8648 28.0459 14.738C28.0463 14.6125 28.0467 14.4875 28.0459 14.3804C28.0448 14.0598 28.0534 13.8704 28.0604 13.7175C28.0704 13.4973 28.077 13.3526 28.0459 13V11.35C27.6977 11.4845 27.3407 11.622 26.9877 11.7579C25.9561 12.155 24.9582 12.5392 24.31 12.8L24.4506 13.1412L24.584 13.4142C24.6369 13.5595 24.6409 13.5681 24.6602 13.6099C24.6771 13.6466 24.7059 13.709 24.7902 13.9123C24.8098 13.9554 24.8325 14.0132 24.8621 14.0883C24.8927 14.1661 24.9307 14.2625 24.98 14.3804C24.9882 14.405 24.9973 14.43 25.0076 14.4582C25.0474 14.5674 25.1052 14.7259 25.2 15.1026C25.3 15.5 25.379 16.0931 25.3761 16.4424C25.3732 16.5587 25.3746 16.733 25.376 16.906C25.3774 17.0765 25.3789 17.2456 25.3761 17.3568C25.3809 17.6662 25.3808 17.6658 25.3796 17.6533C25.379 17.6472 25.3781 17.6381 25.3774 17.6615C25.3731 17.7959 25.3508 17.9293 25.3035 18.0552V18.0552C25.2128 18.2967 25.156 18.4479 24.9932 18.6555C24.8057 18.8949 24.5214 19.032 24.2273 19.109V19.109C23.9822 19.1731 23.9559 19.18 23.4006 19.18C23.0759 19.18 22.9155 19.1747 22.6918 19.1295C22.3526 19.0609 22.0354 18.884 21.8292 18.6061C21.7099 18.4454 21.6487 18.3136 21.5654 18.134V18.134C21.4829 17.9561 21.4369 17.763 21.4367 17.567C21.436 17.0895 21.4339 16.5926 21.4318 16.0905C21.4275 15.0913 21.4232 14.0712 21.43 13.1412C21.4322 12.805 21.4305 12.4279 21.4287 12.0459C21.4264 11.5609 21.4242 11.068 21.43 10.6412C21.4361 10.2353 21.4344 10.1451 21.4322 10.0274C21.4304 9.92856 21.4282 9.81033 21.43 9.46934C21.4304 9.34006 21.4301 9.23785 21.4297 9.13813C21.4293 9.01829 21.4289 8.90203 21.43 8.74668C21.4327 8.60731 21.4314 8.40097 21.43 8.19514C21.4287 7.99242 21.4274 7.79019 21.43 7.65293V6.64121C21.436 6.04323 21.4339 5.42937 21.4319 4.83884ZM18.7625 31.5493C18.7629 30.5492 18.7631 29.6223 18.7628 28.8718C18.7626 28.9814 18.7624 29.0984 18.7623 29.2257C18.7623 29.555 18.7623 29.9487 18.7624 30.3652C18.7624 30.3827 18.7624 30.4004 18.7624 30.4182C18.7625 30.4683 18.7625 30.8336 18.7625 31.3064C18.7625 31.3877 18.7625 31.4688 18.7625 31.5493ZM25.33 24.7672C25.33 24.3773 25.212 23.9965 24.9915 23.6749V23.6749C24.2529 22.5979 22.6805 22.5491 21.8766 23.5783L21.8352 23.6312C21.5632 23.9795 21.4154 24.4086 21.4154 24.8505V36.0342C21.4154 36.589 21.6515 37.1187 22.0636 37.4902V37.4902C22.8093 38.1625 23.9449 38.1624 24.6885 37.4878V37.4878C25.097 37.1171 25.33 36.5912 25.33 36.0396V24.7672Z" fill="url(#paint2_linear_2331_293)"/>
<path d="M33.4172 23.23C34.46 22.8234 34.46 22.8299 34.8859 22.67C34.874 23.4002 34.8792 23.7457 34.8838 24.1004C34.8887 24.4412 34.8789 25.6336 34.8838 25.9813C34.8928 27.0242 34.8813 28.1301 34.8859 29.173C34.8892 29.8593 34.8755 30.4868 34.8859 31.173C34.8944 31.829 34.8834 32.4875 34.8859 33.1435C34.8905 33.3891 34.9045 33.7447 34.9259 33.9976C35.1059 35.1799 35.1759 35.1799 35.3259 35.6799C35.5259 36.1799 35.7559 36.6799 35.9759 37.1799C35.4759 37.1799 34.0259 37.1799 33.5259 37.173C33.0259 37.1799 31.5459 37.1799 31.1459 37.1799C31.3759 36.6799 31.3859 36.6799 31.5359 36.3099C31.6373 36.0596 31.7959 35.6692 31.9659 35.1799C32.1459 34.5041 32.2459 34.0907 32.2284 32.8517C32.2284 32.3626 32.2284 31.3596 32.2284 30.8704C32.2279 30.1223 32.2322 29.6141 32.2284 28.866C32.2279 28.5073 32.2234 27.9672 32.2126 27.68C32.2079 27.5567 32.2096 27.4323 32.1912 27.3104C32.1869 27.282 32.1803 27.2344 32.17 27.1342C32.16 26.9247 32.12 26.8099 32.01 26.3099C32.01 26.2123 31.7585 25.5312 31.67 25.3099C31.47 24.8099 31.46 24.8099 31.14 24.1099C31.9264 23.8195 32.5821 23.5557 33.4172 23.23Z" fill="url(#paint3_linear_2331_293)"/>
<path d="M42.3737 29.5597C42.2484 29.0848 42.2262 28.5672 41.3037 28.0096C40.3348 27.5968 39.3322 27.6024 38.4737 28.5497C38.0775 29.0167 37.8275 29.7681 38.0737 30.6082C38.3479 31.2942 38.6701 31.6041 39.2737 31.9097C40.0803 32.2013 40.8809 32.2107 41.6837 31.5797C42.1946 31.0767 42.4883 30.5685 42.3737 29.5597Z" fill="url(#paint4_linear_2331_293)"/>
<defs>
<linearGradient id="paint0_linear_2331_293" x1="6.425" y1="25.0892" x2="6.425" y2="34.7609" gradientUnits="userSpaceOnUse">
<stop stop-color="#FCF4F4"/>
<stop offset="1" stop-color="#C25757"/>
</linearGradient>
<linearGradient id="paint1_linear_2331_293" x1="13.265" y1="19.0486" x2="13.265" y2="40.8013" gradientUnits="userSpaceOnUse">
<stop stop-color="#FCF4F4"/>
<stop offset="1" stop-color="#C25757"/>
</linearGradient>
<linearGradient id="paint2_linear_2331_293" x1="23.41" y1="4" x2="23.41" y2="55.85" gradientUnits="userSpaceOnUse">
<stop stop-color="#FCF4F4"/>
<stop offset="1" stop-color="#C25757"/>
</linearGradient>
<linearGradient id="paint3_linear_2331_293" x1="33.558" y1="22.67" x2="33.558" y2="37.1799" gradientUnits="userSpaceOnUse">
<stop stop-color="#FCF4F4"/>
<stop offset="1" stop-color="#C25757"/>
</linearGradient>
<linearGradient id="paint4_linear_2331_293" x1="40.1871" y1="27.7485" x2="40.1871" y2="32.1013" gradientUnits="userSpaceOnUse">
<stop stop-color="#FCF4F4"/>
<stop offset="1" stop-color="#C25757"/>
</linearGradient>
</defs>
</svg>
